<svg xmlns="http://www.w3.org/2000/svg" version="1.0" width="20" height="20" viewBox="0 0 550 550"><path d="M255 3.7c-53.4 4.1-100.9 22.1-145 55.1-14.1 10.5-39.6 35.9-50.3 49.9-26.8 35.2-44.2 74.2-52.2 116.7-1.5 7.6-2.4 14.4-2.1 15.2.5 1.2 10.5 1.4 65.7 1.2l65.1-.3 2.5-8.5c6.4-22.2 20.5-44.6 39.2-62.2 19.7-18.6 44.1-30.9 71.6-36.4 12.3-2.4 38.5-2.4 51 0 16.7 3.3 37.2 11.3 49.9 19.4 8.5 5.5 20.4 15.2 27.1 22.3 17.9 18.9 28.3 37.5 36.1 64.6.3 1 14.3 1.3 65.9 1.3H545v-2.3c0-2.5-2.2-14.6-4.4-25.2-4.6-21.3-15.8-50.6-27.1-70.8-34-60.7-90-106.8-154.7-127.5-11.3-3.6-26.9-7.4-42.3-10.1C302.6 3.6 272 2.4 255 3.7" fill="#fff"/><path d="M253.5 188.5c-11 2.8-18.2 5.9-27.7 12.1-19.3 12.5-33.6 33.7-38.4 57.1-2 9.6-1.5 30.9 1 39.8 6.1 21.8 18.9 39.7 36.9 51.6 15.7 10.3 31 14.9 49.7 14.9 24.4 0 45.9-8.9 63-26 29.6-29.5 34.6-75 12.3-110.9-8.8-14.2-25.5-28.3-41.2-34.6-16.9-6.9-38.4-8.5-55.6-4" fill="#fff"/><path d="M5 310c0 3.7 4.7 26.6 7.7 37.5 12.5 45.6 35.9 85.3 70.7 120 35.8 35.8 77.2 59.3 125.4 71.5 42 10.6 88.3 10.7 130.7.5 13.8-3.4 31.3-9.1 41-13.5 37.7-16.8 59.1-31.5 87.1-59.4 22.4-22.4 36.5-41.6 49.9-68.1 10.4-20.4 17.4-39.5 22.5-60.6 2.3-9.9 5-24.5 5-27.7V308l-65.7.2-65.7.3-1.1 4.5c-1.9 7.2-8.3 23-12.2 30-12.7 23-34.3 44.6-57.3 57.3-7.1 3.9-22.6 10.2-30.5 12.3-19.8 5.4-44.8 6.3-63.9 2.5-30.9-6.2-57.6-21.1-78.5-43.7-16.1-17.5-26.6-36.9-33.7-62.2-.3-.9-14.3-1.2-65.9-1.2C6.2 308 5 308 5 310" fill="#fff"/></svg>